#N canvas 218 50 945 613 12;
#X obj 170 202 print;
#X msg 170 123 Hello World;
#X msg 66 394 one;
#X msg 82 424 1 2 3;
#X msg 297 394 a b c;
#X msg 312 424 a \, b \, c;
#X obj 650 94 float;
#X floatatom 650 152 5 0 0 0 - - - 0;
#X symbolatom 650 180 7 0 0 0 - - - 0;
#X msg 650 122 bang;
#X floatatom 557 412 5 0 0 0 - - - 16;
#X symbolatom 664 412 7 0 0 0 - - - 16;
#X text 648 240 just a textual display;
#X text 16 17 Welcome to this tutorial on Live Electronics with Pd and the ELSE library. Let's jump right into it!, f 59;
#X listbox 650 211 20 0 0 0 - - - 0;
#X obj 557 452 print number;
#X obj 66 466 print ex1;
#X obj 297 466 print ex2;
#X obj 664 452 print symbol;
#X listbox 772 412 10 0 0 0 - - - 16;
#X obj 772 452 print list;
#X text 92 112 入口 ==>;
#X text 92 134 出口 ==>;
#X text 190 163 <== 连接线;
#X text 92 189 入口 ==>;
#X text 212 201 <== 对象（实例） 盒*;
#X text 92 232 * [print] 这一对象可以在终端窗口中展示接收到的信息。。。。。。。。., f 41;
#X text 16 280 一条消息（message）可以包含一个或多个元素，这些元素被称为“原子（atoms）” ，它们既可以是数字，也可以是符号。。. 此外，通过逗号，你可以在同一个消息框中编写多条消息。.。（如下所示）, f 71;
#X text 108 393 一个元素/原子;
#X text 356 393 单条信息;
#X text 371 425 三条信息;
#X text 128 424 三个元素/原子;
#X text 16 338 *在print对象中，在右侧加入参数可以为输出的信息加入前缀，这样就可以很方便地区分 不同的对象输出的信息了。。., f 70;
#X text 143 466 <= 以“ex1“打印;
#X text 369 467 <= 以"ex2"打印, f 15;
#X text 16 508 Pd中的数字都是32位精度的浮点数（即带有小数点的数，例如“1.2”），（关于这种 类型和精度的细节我们稍后会进一步探讨）。// 。Pd最多只保留6位有效数字，一旦超出这个范围，它就会自动采用指数格式来表示， 比如“1e+6”。//此外，任何不被视为数字原子的内容，都会被当作符号原子来处理。//, f 66;
#X text 546 93 1) 对象;
#X text 546 122 2) 信息;
#X text 546 151 3) 数字;
#X text 546 179 x) 符号;
#X text 546 210 x) 符号（列表）;
#X text 713 93 对象盒;
#X text 713 122 信息盒;
#X text 712 151 "数字原子盒";
#X text 711 180 "符号原子盒";
#X text 772 210 "列表盒";
#X text 256 122 <== 信息盒;
#X text 546 240 x) 注释;
#X text 16 55 在 Pd 中编程，主要是通过将“盒子”从“出口”连接到“入口”来实现的.。 你可以点击那个写着“Hello World!”的盒子，然后在 Pd 的终端窗口（也叫“Pd 窗口”）中查看运行结果 。。。//要打开终端，只需点击右侧的“Open Console Panel”。。//, f 64;
#X text 523 35 这里是所有盒子的类型，你可以通过左上方的菜单或者它们的快捷键 来添加它们:, f 55;
#X text 525 280 获取帮助的方法：右键点击任意一个盒子，然后选择“Help”—— 这个功能对注释框也同样适用，你可以试试看！在本教程中，只 要遇到你不认识的对象，都应该去查阅一下它的帮助文件！ 另外，如果你右键点击工程（Patch）里的空白区域并选择“Help” ，Pd还会为你列出它所有内置对象的清单！（然而Plugdata里没 有这个功能v_v）, f 52;
#X text 519 500 上面的盒子（对象）都是可交互的，你可以点击、输入内容并按回车（对 于数字对象，还可以直接点击并拖动来调整数值）。// 这些对象都有着各自的属性窗口，你可以右键点击对象，然后选择属性 (Properties)窗口进去看看// 。比如，你可以试着改一下它们的字体或字号（上面示例中的字号是16） 。 也别忘了去查阅一下它们的帮助文件哦, f 56;
#X connect 1 0 0 0;
#X connect 2 0 16 0;
#X connect 3 0 16 0;
#X connect 4 0 17 0;
#X connect 5 0 17 0;
#X connect 10 0 15 0;
#X connect 11 0 18 0;
#X connect 19 0 20 0;
