#N canvas 550 32 517 613 12;
#X floatatom 159 464 5 0 0 0 - - - 0;
#X obj 159 366 metro 100;
#X obj 159 414 random 100;
#X msg 159 315 bang;
#X text 47 105 你可以通过上方菜单，或者使用Ctrl+E，Ctrl+鼠标左键等快捷键，来进入或 退出编辑模式。//此外，当你从菜单中或使用快捷键插入某个对象时，系统也 会自动切换到编辑模式//;
#X text 47 164 要在编辑模式下建立连接，首先将鼠标移至一个出口（outlet），当出口处的小圆圈被加粗时，点击并拖拽，拉出一条连接线，并将其引导至一个入口 （inlet），当你再次看到入口处的小圆圈被加粗时，松开鼠标按键，连接就 建立好了。//若要断开连接，请将鼠标移至连接线上，当该线被加粗时，点击 选中，此时按下 Backspace 或 Delete 键即可移除这条连接。//;
#X text 47 240 在编辑模式下，将鼠标光标移到对象（objects），消息框（messages）或 注释框（comments）的四个角，当你看到光标变成一个带有左右双箭头的 “调整大小”图标时，点击并拖拽即可调整该框的大小。//, f 60;
#X text 239 365 <= 试着将这几个实例连接起来，均连接到左侧入口即可//再点击bang。;
#X text 64 535 *此处你搭建起来的的小程序将以每100毫秒一次的速度输出一个100以内的 随机正整数。//;
#X text 476 27 *事实上在Plugdata中还有一种能够运行程序的模式，即展示模式(Presentation Mode)。//你可以在上方菜单中找到它。, f 65;
#X text 47 27 我们只能在“运行（Run）”模式下与程序进行交互，也就是“非编辑（Edit） 模式”时。//当处于编辑模式时，你可以选中，、删除、，修改对象和消息，连接或 断开盒子，以及进行更多操作。//此外，你还可以在编辑模式中右键对象使用常 规的剪切、、、 \, 复制 \, 、粘贴和复制副本（duplicate）等操作。//;
