#N canvas 349 23 1017 658 12;
#X floatatom 267 422 5 0 0 0 - - - 0;
#X floatatom 267 503 5 0 0 0 - - - 0;
#X floatatom 207 503 5 0 0 0 - - - 0;
#X msg 207 422 12;
#X obj 157 252 line~;
#X obj 157 279 dac~;
#X obj 157 198 *~;
#X obj 157 224 osc~;
#X obj 608 268 osc~ 440;
#X obj 207 454 * 5;
#X obj 267 454 + 5;
#X obj 608 479 *~;
#X obj 609 536 dac~;
#X obj 654 438 line~;
#X msg 670 402 0 1000;
#X msg 654 364 0.25 1000;
#X text 70 23 在Pd中，我们可以使用两种对象，即:;
#X text 245 44 - 音频对象, f 9;
#X text 245 62 - 控制对象;
#X text 67 95 音频对象是一种以某种方式处理音频信号的对象//在大部分情况下， 每个音频对象都有至少一个信号输入和一个信号输出。// 音频对象总是以波浪号(~)结尾，就像一个小小的可爱的正弦波一样。//, f 53;
#X text 69 162 几个音频对象的例子:;
#X text 200 199 <= 乘法计算（音频）;
#X text 200 279 <= 音频输出(Digital to Analog Converter);
#X text 200 225 <= 振荡器（Oscillator）;
#X text 200 252 <= 生成信号线（Line Ramp）;
#X text 528 35 音频信号与控制消息之间有一个巨大的区别，那就是：在Pd中，控制数据是按 需随时处理的。//但音频信号则必须开启“DSP（数字信号处理）”引擎才能运行， 而且即使它们没有连接到任何东西，也依然会消耗 CPU 算力！, f 62;
#X obj 1015 108 setdsp~;
#X floatatom 1015 51 5 0 0 0 - - - 12;
#X text 1089 107 *然而在Plugdata中，DSP是默认开启的，你可以使用[setdsp~]来控制， 当参数为0时，DSP将被关闭；非0时，DSP则被开启//。, f 56;
#X text 528 176 开启DSP后，让我们来看看这个简单的程序，它通过控制振荡器的音量，来实现 淡入淡出（fade in/out）的效果。//, f 63;
#X text 528 221 音频对象和控制对象之间的连接亦有差别，可以看出：在音频信号的入口和出 口，呈现出黄色的圆圈，且它们之间的连接线也是虚实相间。//, f 62;
#X text 680 267 <= 此参数将振荡器频率设定为440Hz;
#X text 58 322 当DSP开启时，所有输出音频的对象都会以给定的采样率，为每一个采样点生 成信号值//。比如，右侧的振荡器每秒就会生成44100个振幅采样点// 。, f 61;
#X text 310 421 <= 数字盒;
#X text 123 421 信息盒 =>;
#X text 111 453 控制对象 =>;
#X text 292 478 <= 控制信号连接;
#X text 52 552 对象通常带有参数，这些参数其实就是它们的默认值（在进行处理前提前设定 好的量）//。在上面的示例中，两个对象的参数都是“5”。，因此，当有数值输入 时，在乘法对象（[*]）中，输入的值会被乘以“5”；而在加法对象（[+]）中， 输入的值则会加上“5”。//, f 61;
#X text 636 312 依次点击下方的两 个信息盒:, f 15;
#X text 732 364 此参数将在1000毫秒内生成一个从0到0.25的信号线;
#X text 733 401 此参数将在1000毫秒内生成一个从0.25到0的信号线;
#X text 471 446 音频信号连接 => (虚实相间), f 20;
#X text 670 535 音频输出;
#X text 648 479 用osc~的信号乘以信号线的值，以调整增益（gain）;
#X text 528 89 默认情况下，当我们打开Pd时，DSP（即“数字信号处理”）是关闭的。//因此，此 时没有任何音频对象能够运行，但控制对象是可以正常工作的 \, 。你可以通过控制台 窗口、菜单栏（Media => DSP On / DSP Off）以及相应的快捷键来开启或关闭DSP//。此外，我们稍后还会看到，也可以通 过向 Pd 发送消息来控制它的开关。//, f 63;
#X text 1089 149 *左侧使用终端窗口（窗口、菜单栏）开关DSP的方法在Plugdata中并不可用//;
#X text 966 479 *若直接输出osc~的信号，将会导致声音以最大振幅（1）输出，导致Limiter 削波//而在PureData原生环境中甚至没有内置Limiter，后果如何，可想而知。//, f 61;
#X connect 0 0 10 0;
#X connect 3 0 9 0;
#X connect 8 0 11 0;
#X connect 9 0 2 0;
#X connect 10 0 1 0;
#X connect 11 0 12 0;
#X connect 11 0 12 1;
#X connect 13 0 11 1;
#X connect 14 0 13 0;
#X connect 15 0 13 0;
#X connect 27 0 26 0;
