#N canvas 551 79 987 440 12;
#X floatatom 258 274 0 0 0 0 - - - 0;
#X floatatom 261 181 0 0 0 0 - - - 0;
#X obj 258 247 receive midinote;
#X obj 517 53 hsl 128 15 0 1 0 0 slider empty empty -2 -8 0 10 #dcdcdc #000000 #000000 0 1;
#X obj 517 84 hsl 128 15 0 1 0 0 empty slider empty -2 -8 0 10 #fcc4c4 #000000 #000000 0 1;
#X obj 256 304 receive slider;
#X floatatom 256 330 5 0 0 0 - - - 0;
#N canvas 0 22 450 278 (subpatch) 0;
#X array array4 100 float 2;
#X coords 0 1 100 -1 200 140 1 0 0;
#X restore 687 196 graph;
#X msg 514 114 const \$1;
#X obj 261 208 send midinote;
#X msg 819 97 \; array4 const 0.5;
#X text 583 113 <==========;
#X msg 37 195 \; slider 0.05 \; midinote 56;
#X obj 458 381 s;
#X obj 498 381 r;
#X obj 542 381 s~;
#X obj 591 381 r~;
#X obj 514 143 send array4;
#X obj 454 284 send~ x;
#X obj 518 284 receive~ x;
#X obj 456 316 throw~ y;
#X obj 527 315 catch~ y;
#X msg 143 195 \; slider 0.8 \; midinote 77;
#X text 25 84 在消息框中，分号的作用等同于一个[send]对象//这个特性非常实用，可以 让你在点击一次时，同时向多个地方发送信息//此外，Pd 原生的原子框（atom boxes，比如数字框）和GUI对象也都内置了发送（send）和接收（receive） 的功能（一些外部的GUI对象同样具备此功能）//你可以通过右键点击对象打开 属性窗口，然后在“General”选项卡下的receive symbol和send symbol进行 设置//, f 64;
#X text 82 380 [send] \, [receive] \, [send~] and [receive~]对象的缩写形式:;
#X text 634 374 请注意，不带参数的[send]将附带一 个冷入口供你输入地址参数（send name）, f 36;
#X text 707 15 数组（Arrays）同样可以接收来自[send] 对象的指令，前提是该[send]对象的地址 参数必须设置为该数组的名称。//, f 33;
#X text 495 30 以下滑块内置了send/receive;
#X text 687 98 为数组内的所有索引 输入常数 =======>, f 18;
#X text 425 195 它们也有对应的音频对象版本，。 不过，除了[send~]/[receive~] 之外，我们还有[throw~]/[catch~] 这一对组合，建议你查看一下它们 的帮助文档来深入了解。。。//, f 28;
#X text 25 26 具有相同地址参数（address argument）的发送（[send]）和接收 （[receive]）对象，可以实现“无线连接”//它们不仅可以在同一个程序（画布） 内的任意位置进行通信，甚至还能在不同的程序之间互相通信！, f 64;
#X text 52 264 另外： \; 当你输入分号时 \; 将强制换行，这一特性在 \; 对象和注释中 \; 也会出现！;
#X connect 1 0 9 0;
#X connect 2 0 0 0;
#X connect 4 0 8 0;
#X connect 5 0 6 0;
#X connect 8 0 17 0;
