#N canvas 858 50 459 612 12;
#X msg 86 129 dsp 1;
#X msg 102 160 dsp 0;
#X msg 231 138 \; pd dsp \$1;
#X obj 231 111 tgl 18 0 empty empty empty 17 7 0 10 #fcfcfc #000000 #000000 0 1;
#X obj 204 481 r slider;
#X msg 204 510 \$1 10;
#X obj 204 539 line~;
#X obj 127 475 osc~ 440;
#X obj 127 509 *~;
#X obj 127 553 dac~;
#X obj 86 202 s pd;
#X obj 219 187 r pd-dsp-started;
#X obj 219 212 bng 15 250 50 0 empty empty empty 17 7 0 10 #fcfcfc #000000 #000000;
#X obj 159 349 hsl 128 15 0 0.1 0 0 slider empty empty -2 -8 0 10 #dfdfdf #000000 #000000 0 1;
#X msg 156 311 send slider;
#X text 47 22 你也可以向 Pd 发送消息，比如 dsp 1 和 dsp 0，它们分别用 来开启和关闭DSP（数字信号处理）引擎。//同时，你也可以从 Pd接收消息，例如当你开启DSP时，系统会触发一个触发器 信号，你可以通过pd-dsp-started来接收它。//。, f 50;
#X text 414 22 *该信息发送机制同样可以在系统内置控制台(comment)中使用（见下方》“>” 按钮）， 但需要加入前缀pd，以指明发送地址//;
#X text 137 128 开启DSP;
#X text 156 159 关闭DSP;
#X text 255 110 开/关;
#X text 58 253 需要注意的是，你也可以通过消息来设置iemgui 对象的接收和发送名称//, f 39;
#X text 57 379 开启DSP，这样我们就可以从上方灰色的滑块获取 数值，并通过[line~]对象将其转换为音频信号，进 而控制振荡器的音量。//, f 40;
#X connect 0 0 10 0;
#X connect 1 0 10 0;
#X connect 3 0 2 0;
#X connect 4 0 5 0;
#X connect 5 0 6 0;
#X connect 6 0 8 1;
#X connect 7 0 8 0;
#X connect 8 0 9 0;
#X connect 8 0 9 1;
#X connect 11 0 12 0;
#X connect 14 0 13 0;
