#N canvas 259 43 1068 647 12;
#X floatatom 88 341 5 0 0 0 - - - 0;
#X floatatom 88 407 5 0 0 0 - - - 0;
#X floatatom 141 340 5 0 0 0 - - - 0;
#X floatatom 141 406 5 0 0 0 - - - 0;
#X obj 300 410 dac~;
#N canvas 686 173 437 383 sum 0;
#X obj 112 88 inlet;
#X obj 112 176 outlet;
#X obj 112 134 + 1;
#X obj 244 87 inlet;
#X obj 244 175 outlet;
#X obj 244 129 + 2;
#X text 82 47 与[pd sum]的左侧 \; 入口对应↓↓;
#X text 205 47 与[pd sum]的右侧 \; 入口对应↓↓;
#X text 82 206 与[pd sum]的左侧 \; 出口对应↓↓;
#X text 209 206 与[pd sum]的右侧 \; 出口对应↓↓;
#X text 53 288 值得注意的是，子程序的名字会展示在标题栏中央，比如 这里的“sum”//, f 45;
#X connect 0 0 2 0;
#X connect 2 0 1 0;
#X connect 3 0 5 0;
#X connect 5 0 4 0;
#X restore 96 372 pd sum;
#X obj 342 329 osc~ 440;
#X symbolatom 632 411 10 0 0 0 - - - 0;
#X floatatom 720 410 5 0 0 0 - - - 0;
#X msg 632 320 bang;
#X obj 632 354 abstraction-1 example 1, f 13;
#X obj 692 552 savestate;
#X obj 832 552 clone;
#X msg 260 328 volume \$1;
#X obj 263 301 hsl 128 15 0 0.1 0 0 empty empty empty -2 -8 0 10 #dcdcdc #000000 #000000 0 1;
#N canvas 438 321 729 287 gain 0;
#X obj 79 136 *~;
#X obj 79 195 outlet~;
#X obj 79 40 inlet~ fwd;
#X obj 146 77 route volume;
#X obj 146 134 line~;
#X msg 146 105 \$1 10;
#X text 276 79 fwd参数会创建一个额外的出口，专门用于接收控制消息，例如来自父 程序的“volume”消息//在这里，我们使用[route]对象来从“volume”消息 中提取出浮点数值//, f 57;
#X connect 0 0 1 0;
#X connect 2 0 0 0;
#X connect 2 1 3 0;
#X connect 3 0 5 0;
#X connect 4 0 0 1;
#X connect 5 0 4 0;
#X restore 300 373 pd gain;
#X msg 378 391 \; pd dsp 1;
#X obj 378 365 loadbang;
#X listbox 782 298 8 0 0 0 - - - 0;
#X listbox 782 419 8 0 0 0 - - - 0;
#X obj 782 326 abstraction-2 17 1 hi;
#N canvas 585 347 480 308 (subpatch) 0;
#X floatatom 13 11 5 0 0 0 - - - 0;
#X obj 15 39 bng 15 250 50 0 empty empty empty 17 7 0 10 #fcfcfc #000000 #000000;
#X obj 17 75 hsl 128 15 0 127 0 0 empty empty empty -2 -8 0 10 #fcfcfc #000000 #000000 0 1;
#X obj 55 14 tgl 15 0 empty empty empty 17 7 0 10 #fcfcfc #000000 #000000 0 1;
#X listbox 46 46 20 0 0 0 - - - 0;
#X text 98 7 从放置菜单中 加载的“Graph”, f 13;
#X connect 1 0 2 0;
#X connect 2 0 0 0;
#X connect 3 0 0 0;
#X coords 0 1 100 -1 200 100 1 0 0;
#X restore 778 14 graph;
#X text 497 120 ----------------------------------------------------------------------------, f 76;
#X text 23 33 在 Pd 中有两种类型的子程序（subpatches），即一次性子程序（One-off subpatches）和抽象（Abstractions）//前者仅仅是同一个程序文件中的一个 子窗口，用于将你的代码更好地组织成不同的模块//而后者则是一个独立的Pd 程序（即一个单独的本地程序），可以在另一个程序中被多次加载和调用//, f 62;
#X text 23 207 尽管官方文档里使用了“一次性子程序”这个名字，但这个说法其实并没有流行 起来，大家通常还是直接叫它“子程序（subpatch）”（有点迷惑）//你可以通 过[pd]对象来创建一个子程序，还可以给它加一个参数，这个参数的功能是给 这个子程序命名//, f 63;
#X text 80 283 一次性子程序:;
#X text 64 310 （或者说“子程序”）;
#X text 169 372 <= 点击以打开 =>;
#X text 23 108 数据通过[inlet]（入口）和[outlet]（出口）对象创建的接口进出子程序//如果 要处理音频信号，请使用它们的信号变体：[inlet~]和[outlet~]//需要注意的是 ，[inlet~]加上“fwd”参数后，也可以接收控制数据。//关于更多细节以及如何设置 默认的音频信号值，请查阅[inlet~]的帮助文件，这会帮助你减少一些奇怪的音 频现象//, f 63;
#X text 23 555 要打开子程序的属性，除了右键点击[pd]对象之外，还可以在子程序内部的 空白处右键单击//在图形化子程序的基础中，你还可以选择是否隐藏对象的 名称和参数（Hide name and arguments）//有一个快速创建图形化一次性 子程序的办法，即在放置菜单中选择放置图形窗口（Graph）对象//, f 61;
#X text 23 454 我们把一个内置有一次性子程序或者抽象的程序称为父程序，而这些子程序就 像是它的“孩子”一样，因此被称为“子”程序//在子程序对象的属性中有一个是否 \; 在父程序上显示图形窗口的选择（“Is Graph”），这一选择允许子程序在父 程序中展示一部分图形内容（比如数组、，原子框和注释），并隐藏其对象框、，信 息框和连接线等其他内容//可参考Plugdata上方的展示模式（Presentation Mode）//, f 63;
#X text 517 33 我们可以在放置菜单的最右侧找到图形窗口 对象//当然你也可以通过改变属性将[pd]对 象变成类似的对象//, f 35;
#X text 537 141 抽象（Abstraction）虽然不是一个编译好的外部对象，但它也算作一种外部对 象（external）//要想让一个程序被当作抽象来加载，它必须放在Pd会自动搜索 的文件夹中，比如用户自定义的路径（通过Pd设置=>路径=>添加搜索路径以自 定义），或者与调用它的父程序放在同一个文件夹内。//, f 64;
#X text 518 353 点击开启 =>;
#X obj 587 444 abstraction-1-help;
#X text 482 429 关于抽象的帮助 文档=>, f 14;
#X text 610 297 抽象:;
#X text 890 356 <= 右键单击以打开 抽象或者查看属性//, f 18;
#X text 537 219 抽象通过[pdcontrol]对象以及对象内部的美元符号（dollar signs）来加载参数 ，其方式与普通对象类似//。请注意，不要与在消息（messages）内部使用美元符 号的情况相混淆！, f 64;
#X text 551 470 让我们来看看看[savestate]对象的帮助文档吧，这一对象能够在你保存父程序时 ，从抽象中保存一份参数列表，即它的“状态”（state）（注：文档中出现的主程 序（owning patch）是父程序的另一种说法）//这个“状态”会作为一个隐藏的列表 保存在父程序中，保证下次打开父程序时，在子程序中的改动不会丢失//, f 66;
#X text 557 594 另外，也请查阅[clone]对象的帮助文档，它可以在Pd的一个程序中加载同一个抽 象的多个实例（或副本）。//, f 66;
#X text 557 635 *这一对象在处理大规模并发与问题时相当有用//;
#X connect 0 0 5 0;
#X connect 2 0 5 1;
#X connect 5 0 1 0;
#X connect 5 1 3 0;
#X connect 6 0 15 0;
#X connect 9 0 10 0;
#X connect 10 0 7 0;
#X connect 10 1 8 0;
#X connect 13 0 15 0;
#X connect 14 0 13 0;
#X connect 15 0 4 0;
#X connect 15 0 4 1;
#X connect 17 0 16 0;
#X connect 18 0 20 0;
#X connect 20 0 19 0;
