#N canvas 601 234 727 394 12;
#X obj 107 23 inlet;
#X obj 107 348 outlet;
#X obj 40 113 pdcontrol;
#X msg 40 85 args;
#X obj 40 58 loadbang;
#X listbox 107 196 8 0 0 0 - - - 16;
#X text 120 112 <=================;
#X text 120 156 父级窗 口显示, f 8;
#X text 283 89 查看一下[pdcontrol]对象的帮助文档，里面写有一个加载参数的替代方案// 就像你看到的，这个抽象包含有“17 1 hi”的参数//使用[pdcontrol]对象加载 参数的优势就在于，它可以帮你处理可变数量的参数，这些参数被加载为列 表，且它的大小是不受限制的//;
#X text 283 167 这是一个启用了“在父级画布上显示图形”（Graph on parent/Is Graph）功 能的抽象//要访问这个选项，你可以在画布的空白处右键点击，然后在弹 出的菜单中选择“属性”//另一种方法是，直接在父级窗口中右键点击该抽 象对象//请注意，这个抽象还被设置为在父级画布中隐藏其名称和参数（Hi de name and arguments）//;
#X text 283 260 在属性窗口中，你还可以调整显示图形的X和Y大小范围//;
#X connect 0 0 5 0;
#X connect 2 0 5 0;
#X connect 3 0 2 0;
#X connect 4 0 3 0;
#X connect 5 0 1 0;
#X coords 0 -1 1 1 100 80 2 100 150;
