#N canvas 284 37 951 655 12;
#X obj 212 408 bng 15 250 50 0 empty empty empty 0 -6 0 8 #fcfcfc #000000 #000000;
#X text 203 385 [bng];
#X obj 73 256 vsl 15 80 0 127 0 0 empty empty empty 0 -8 0 8 #fcfcfc #000000 #000000 0 1;
#X text 48 213 [vslider];
#X obj 164 239 hsl 128 15 0 127 0 0 empty empty empty -2 -6 0 8 #fcfcfc #000000 #000000 0 1;
#X obj 69 438 tgl 15 0 empty empty empty 0 -6 0 8 #fcfcfc #000000 #000000 0 1;
#X obj 76 526 nbx 5 14 -1e+37 1e+37 0 0 empty empty empty 0 -8 0 10 #fcfcfc #000000 #000000 0 256;
#X text 85 502 [nbx];
#X obj 164 326 hradio 15 1 0 8 empty empty empty 0 -6 0 10 #fcfcfc #000000 #000000 0;
#X obj 337 236 vradio 15 1 0 8 empty empty empty 0 -6 0 10 #fcfcfc #000000 #000000 0;
#X text 188 302 [hradio];
#X text 320 212 [vradio];
#X obj 325 437 vu 15 120 empty empty -1 -8 0 10 #404040 #000000 1 0;
#X text 321 414 [vu];
#X obj 184 516 cnv 15 100 60 empty empty empty 20 12 0 14 #e0e0e0 #404040 0;
#X text 59 389 [toggle];
#X text 50 231 or [vsl];
#X text 168 218 [hslider] or [hsl];
#X obj 73 350 print vsl;
#X obj 161 263 print hsl;
#X obj 164 351 print hradio;
#X obj 69 461 print tgl;
#X obj 76 550 print nbx;
#X text 59 411 or [tgl];
#X obj 212 434 print bng;
#X obj 337 367 print vradio;
#X obj 636 296 tgl 15 0 empty empty empty 17 7 0 10 #dcdcdc #000000 #000000 0 10;
#X obj 634 326 nbx 5 16 0 10 0 0 empty empty empty 0 -8 0 12 #000000 #fcfcfc #000000 0 256;
#X obj 636 264 bng 15 250 50 1 empty empty init 0 -6 0 12 #f8c0b4 #000000 #9c3c1c;
#X floatatom 588 252 1 0 0 0 - - - 0;
#X obj 754 302 hsl 128 15 1.27 127 1 0 empty empty logarhithmic 4 -12 0 14 #dcdcdc #000000 #c82820 0 1;
#X obj 748 326 nbx 5 16 -1e+37 1e+37 0 0 empty empty empty 0 -8 0 12 #000000 #fcfcfc #000000 0 256;
#X msg 748 253 -100;
#X obj 582 468 cnv 15 290 200 empty empty empty 20 12 0 14 #604048 #404040 0;
#X obj 606 491 hsl 230 40 0 127 0 0 empty empty empty -2 -6 0 8 #dcdcdc #000000 #000000 0 1;
#X obj 753 557 hradio 30 1 0 3 empty empty empty 0 -6 0 10 #bcd8d0 #000000 #000000 0;
#X obj 603 594 nbx 7 30 -1e+37 1e+37 0 0 empty empty empty 0 -8 0 18 #000854 #fcfcfc #000000 0 256;
#X obj 753 594 nbx 4 30 -1e+37 1e+37 0 0 empty empty empty 0 -8 0 18 #00087c #fcfcfc #000000 0 256;
#X text 186 474 [my_canvas];
#X text 207 493 or [cnv];
#X obj 521 338 tgl 15 0 empty empty empty 17 7 0 10 #dcdcdc #000000 #000000 0 1;
#X obj 521 307 loadbang;
#X obj 199 759 hradio 36 1 0 8 empty empty empty 0 -8 0 10 #e4e4e4 #4d4d4d #373737 0;
#X text 31 187 一些放置菜单中的iemgui与它们的对象名称：;
#X obj 207 659 tgl 28 0 empty empty empty 0 -10 0 10 #e4e4e4 #4d4d4d #373737 0 1;
#X msg 199 704 orientation \$1, f 10;
#X text 31 140 *Plugdata右侧内置有Inspector（小扳手图案），当其被打开时，直接点击 一个对象就会在右侧显示属性//, f 58;
#X text 17 591 从 Pd 0.53 版本开始，垂直和平行的滑块（sliders）和单选按钮（radio buttons）实际上已经成为统一的对象，你可以通过发送 “orientation” 消息来设置它们的方向。//（见下例）, f 69;
#X text 452 12 一些特性：①在iemgui中，滑块和数字框的值可以以对数形式变化，只需打开属 性中的Logarithmical Mode即可// 。②开关（toggle）的开启和关闭可以设定为不在0和1之间变换，打开属性中的 Non-Zero Value 就能更改。。// //当一个开关接收到bang信号时，它的状态会随之发生改变，输出0或者设定好 的Non-Zero Value。// ③需要注意的是，如果数字框的宽度被设置为仅能显示1位数字，它的行为模式就 会变得和开关一样。// ④即使输入的数值超出了预设范围，这些对象依然会照常将该数值传递到下一 个对象。// ⑤除了画布（[cnv]）和音量表（[vu]）之外，所有的iemguis对象都有一个特别 的Init属性，当加载程序时，启用Initialise的对象将会输出上次保存的数值。//而对于 bang 按钮（[bng]）来说，Init 的作用是在初始化时发送一个 bang信号 顺带一提，这和直接使用一个 [loadbang] 对象的效果是完全相同的，因为对象 [loadbang] 也是在程序加载时自动发送一个 bang 信号。, f 64;
#X text 483 251 数字原子框 => 仅一位长度, f 13;
#X text 796 252 *-100不在下面这个滑块的设定范围之内;
#X text 31 6 除了数字、/信息框，Pd还内置了更多的图形用户交互界面（或简称“GUIs” ），它们对开发交互非常有用//这些元素位于放置菜单的第二组中，也常 被称为“iemguis”，因为它们最初是由格拉茨电子音乐研究所（IEM）开 发的外部插件，与消息框、，数字/符号原子框和注释框不同，你可以直接通 过对象框（Object Boxes）来创建这些GUI(快捷键：Ctrl+1)// 此外，这些GUI拥有更多的属性设置，比如颜色 和大小，你可以右键点击它们来查看和更改属性（Properties），也记得 查阅它们的帮助文件//, f 58;
#X text 460 366 画布GUI对象（[my_canvas]或[cnv]）非常适合用来制作彩色的背景（见下例）// 但需要注意的是，它的图层顺序是由对象创建的先后顺序决定的，所以你需要把 想要显示在它上层的对象放在它之后创建，或者重新创建一下// 另外，[vu]（音量表）对象通常需要配合一个能输出RMS和峰值振幅（rms and peak amplitude）值的对象来使用。//, f 64;
#X connect 0 0 24 0;
#X connect 2 0 18 0;
#X connect 4 0 19 0;
#X connect 5 0 21 0;
#X connect 6 0 22 0;
#X connect 8 0 20 0;
#X connect 9 0 25 0;
#X connect 26 0 27 0;
#X connect 28 0 26 0;
#X connect 30 0 31 0;
#X connect 32 0 30 0;
#X connect 34 0 36 0;
#X connect 35 0 37 0;
#X connect 41 0 40 0;
#X connect 44 0 45 0;
#X connect 45 0 42 0;
