#N canvas 261 44 960 418 12;
#X msg 121 289 4;
#X msg 110 329 1 oi 3 5;
#X msg 121 226 bang;
#X text 77 227 bang;
#X msg 121 262 symbol oi;
#X msg 111 355 list um 2;
#X text 71 262 symbol;
#X text 68 342 list;
#X text 74 290 float;
#X msg 307 251 turn on;
#X msg 307 283 open file4.aif;
#X msg 307 313 stop;
#X msg 373 251 turn off;
#X msg 627 189 list;
#X msg 638 218 list x;
#X msg 661 287 float 5;
#X msg 667 313 list 3 5;
#X msg 649 253 list 4;
#X obj 627 349 print;
#X text 49 19 信息选择器（message selector） 是信息中首先出现的第一个符号， 这一选择器将决定信息的数据类型//Pd内的特殊类型（即最常被Pd对象利 用的信息类型）有：浮点数（float），符号（symbol），列表（list）和 指针（pointer，这一类型仅被用于数据结构）//如果消息的第一个元素是 浮点数，则无需显式指定“float”或者“list”选择器//其他的消息选择器可以 是用户自定义的任何类型，Pd中的对象也能够处理其他类型的消息；如果 一条消息仅包含一个符号（例如“stop”），则该符号被视为一个选择器， \; 且没有附加实际的消息内容//;
#X text 52 188 特殊选择器:;
#X text 306 207 带有其他选择器 的信息:, f 14;
#X text 355 312 "stop"是一个单纯的选择器 \; 不包含任何信息内容//;
#X text 151 288 (非显式指定);
#X text 175 329 (非显式指定);
#X text 502 20 从概念上讲，仅包含一个浮点数的列表消息实际上也可以看作是浮点数消息； 同样地，仅包含一个符号的列表也可以看作是符号消息//最后还有一点，空的 列表等同于触发器（bang）消息，这与我们之前提到的"stop"例子一样//虽 然在技术层面上有所不同，但Pd中的对象会将这些列表的特殊情况视为上述 对应的消息类型，比如[print] 对象就是这样。//, f 62;
#X text 502 115 另外还要注意，[print]对象会忽略浮点数（float）选择器，以及当列表第一 个元素是浮点数时的列表（list）选择器——这进一步印证了这些选择器应当是 隐式的（即无需显式指定）。, f 62;
#X text 693 218 变成了符号;
#X text 667 188 变成了触发器（bang）;
#X text 703 253 变成了浮点数;
#X text 737 288 选择器的忽略：在左侧两 例中，float和list均不会 被打印，与符号 \, bang等 不同//, f 22;
#X connect 13 0 18 0;
#X connect 14 0 18 0;
#X connect 15 0 18 0;
#X connect 16 0 18 0;
#X connect 17 0 18 0;
