#N canvas 497 61 506 418 12;
#X msg 125 241 100000;
#X msg 125 266 1e+06;
#X msg 194 241 -100000;
#X msg 194 266 -1e+06;
#X msg 272 241 0.0001;
#X msg 272 266 1e-05;
#X msg 342 241 -0.0001;
#X msg 342 266 -1e-05;
#X msg 125 349 hey;
#X msg 194 349 "1.2";
#X msg 272 349 (12);
#X msg 342 349 nananana;
#X text 40 16 原子（Atoms）在Pd中指的是一条信息里的单个元素//元素（或者说原子） 既可以是浮点数，也可以是符号或者指针，而列表则可以包含这三种元素的 任意组合//, f 61;
#X text 40 74 在Pd中，我们最常打交道的通常是浮点数以及浮点数列表，。而指针及指针 列表，则仅用于数据结构的语境中。//这是PureData里一个比较进阶且相对晦 涩的功能，我们留到后面再详细讲解。//, f 61;
#X text 40 130 在 Pd 中，数字原子（number atom）始终是浮点数//更具体地说，它是 32 位浮点数；即使输入的是一个整数，在Pd中也会被视为32位浮点数//所有 不符合浮点数格式的内容，在Pd中都会被当作符号字符串（symbol string） 处理//Pd中的数字显示分辨率为6位，如果超出这个分辨率，就会以科学计 数法表示//以下所有示例均为浮点数原子：, f 61;
#X text 40 308 除此以外的元素（就像下面所显示的）则被视为符号:;
#X msg 454 349 支持Alice Collection谢谢喵;
