#N canvas 394 62 552 422 12;
#X floatatom 274 313 5 0 0 0 - - - 0;
#X symbolatom 103 293 15 0 0 0 - - - 0;
#X msg 103 226 symbol nice;
#X msg 103 257 symbol \$1!!!;
#X msg 274 279 \$2;
#X msg 274 216 13 12 11;
#X msg 247 185 list one 2 three;
#X msg 290 246 Midi Note 69;
#X msg 371 362 message;
#X text 35 25 美元符号（$）后跟一个数字，在消息中起到了类似变量的作用//。稍后我们还会看到美 元符号在对象中的其他用法。//, f 70;
#X text 35 72 在消息中，带有美元符号的数字与传入消息中的各个元素的顺序一一对应（无论是数字 还是符号）//因此，\$1代表第1个元素，\$2代表第2个元素，以此类推//需要注意的是， 消息选择器并不被算作消息元素//, f 70;
#X text 119 177 示例:;
#X text 78 362 在信息框的帮助文件中查看更多有用的信息:;
#X text 403 245 *左侧信息框中写有Midi Note 69 \; 其中Midi会被视为选择器跳过//;
#X connect 2 0 3 0;
#X connect 3 0 1 0;
#X connect 4 0 0 0;
#X connect 5 0 4 0;
#X connect 6 0 4 0;
#X connect 7 0 4 0;
