#N canvas 452 23 615 663 12;
#X obj 240 270 float 5.5;
#X msg 240 229 bang;
#X floatatom 240 303 5 0 0 0 - - - 0;
#X msg 171 540 0;
#X obj 355 578 + 1;
#X floatatom 355 622 5 0 0 0 - - - 0;
#X floatatom 197 601 5 0 0 0 - - - 0;
#X obj 197 571 + 1;
#X obj 139 571 float;
#X obj 306 578 float;
#X obj 139 504 bng 18 250 50 0 empty empty empty 17 7 0 10 #dcdcdc #000000 #000000;
#X obj 306 541 bng 18 250 50 0 empty empty empty 17 7 0 10 #dcdcdc #000000 #000000;
#X floatatom 300 229 4 0 0 0 - - - 0;
#X floatatom 203 229 4 0 0 0 - - - 0;
#X obj 240 336 print;
#X text 38 16 在Pd中，大多数的对象都能填写创建时的参数（arguments），也就是初始化参量（itializing parameters）//如果没有提供任何参数，系统就会加载对象的默认值：例如，[float]对象会 存储其入口（inlets）接收到的数字，但它也可以在一开始就提前存储一个作为参数的数字， 如果没有给定参数，[float】]对象初始存储的值就是0//在下面的[float]对象中，参数“5.5”就是 它初始存储的值，而它右侧的入口可以存储新值并覆盖这个初始参数，但请注意，这个新值 并不会在对象框内部直接更新显示，当程序重新加载时，对象框里显示的依然是当初给定的 参数//, f 74;
#X text 38 141 通常情况下，我们把对象的左侧入口称为热入口（hot inlet），它会强制触发对象产生输出// 而其他入口则不会，被称为冷入口（cold inlet）//这一概念仅适用于控制对象（音频对象会持 续不断地生成数据，因此冷热入口的概念对它们并不适用）//, f 74;
#X text 110 228 热入口 =>;
#X text 340 226 <= 冷入口 （用于更新参数）, f 16;
#X text 47 366 现在我们来做一个计数器。//在下方的左侧，展示的是正确的做法//[float]对象在接收到触发 信号时会输出当前存储的数值，该数值会被加上1，然后通过冷入口（cold inlet） 存回 [float]对象中//而右侧的示例则是错误的，因为相加后的数值被送回了热入口（hot inlet） ，从而形成了一个无限循环；如果没有一种机制来打断循环并报错，Pd就会直接卡死 （你可以在终端窗口中看到“栈溢出（stack overflow）”的错误提示）// 点击触发器(bang)来亲自试一试吧！。, f 71;
#X text 316 271 <= 此处的5.5为原参数;
#X text 74 503 计数器:;
#X text 166 502 <= 触发器 GUI (与bang信息起到相同的作用);
#X text 205 540 重置;
#X text 339 540 危险！无限循环！;
#X text 398 577 在右侧的控制台中查看错误信息, f 26;
#X connect 0 0 2 0;
#X connect 1 0 0 0;
#X connect 2 0 14 0;
#X connect 3 0 8 1;
#X connect 4 0 5 0;
#X connect 4 0 9 0;
#X connect 7 0 6 0;
#X connect 7 0 8 1;
#X connect 8 0 7 0;
#X connect 9 0 4 0;
#X connect 10 0 8 0;
#X connect 11 0 9 0;
#X connect 12 0 0 1;
#X connect 13 0 0 0;
