#N canvas 423 58 1054 873 12;
#X msg 372 295 1;
#X obj 221 267 trigger bang bang bang;
#X msg 296 296 2;
#X msg 221 296 3;
#X obj 296 337 print ORDER;
#X msg 142 310 1;
#X msg 106 310 2;
#X msg 70 310 3;
#X obj 106 344 print ORDER;
#X msg 106 263 bang;
#X msg 221 228 bang;
#X obj 115 511 swap;
#X floatatom 146 482 3 0 0 0 - - - 0;
#X floatatom 115 482 3 0 0 0 - - - 0;
#X obj 115 587 /;
#X floatatom 146 547 3 0 0 0 - - - 0;
#X floatatom 115 546 3 0 0 0 - - - 0;
#X floatatom 283 485 5 0 0 0 - - - 0;
#X floatatom 221 485 5 0 0 0 - - - 0;
#X floatatom 344 590 5 0 0 0 - - - 0;
#X floatatom 221 591 5 0 0 0 - - - 0;
#X obj 221 560 float;
#X obj 221 517 trigger bang float;
#X floatatom 115 620 0 0 0 0 - - - 0;
#X msg 516 188 1;
#X obj 516 214 trigger float float;
#X obj 646 242 trigger float float;
#X obj 646 274 + 1;
#X obj 948 295 + 1;
#X obj 948 319 + 1;
#X obj 948 343 + 1;
#X obj 948 367 + 1;
#X obj 862 295 + 1;
#X obj 862 319 + 1;
#X obj 862 343 + 1;
#X obj 776 295 + 1;
#X obj 776 319 + 1;
#X obj 776 426 print Sequence;
#X obj 776 271 trigger float float float;
#X msg 472 533 1 \, 2 \, 3 \, 4 \, five \, six \, 7, f 12;
#X obj 472 597 print Several_Messages;
#X obj 723 600 +;
#X msg 723 564 1 3;
#X floatatom 723 634 5 0 0 0 - - - 0;
#X msg 765 564 10 20;
#X obj 860 601 pack f f f f;
#X msg 860 565 1 3 5;
#X obj 860 633 print;
#X floatatom 941 567 5 0 0 0 - - - 0;
#X obj 690 781 delay 5;
#X obj 601 746 trigger bang bang bang, f 26;
#X obj 601 717 bng 15 250 50 0 empty empty empty 17 7 0 10 #fcfcfc #000000 #000000;
#X obj 780 817 print one;
#X obj 690 817 print two;
#X obj 601 817 print three;
#X text 54 681 ------------------------------------------------------------------------------------------------------------------------------------------, f 139;
#X text 82 238 顺序不确定;
#X text 272 227 使用[trigger]决定顺序;
#X text 43 388 有时你可能需要在你的程序中使用[swap]来反转数据顺序（≠执行顺序）// [swap]同样具有冷入口和热入口，且执行顺序与上文保持一致，但它的输 出数据方向是反转的：左侧输入的数据会先从右侧出口发出，而发送给右 侧输入的数据则会稍后从左侧出口发出//;
#X text 28 503 使用[swap] 反转输出 数据的顺序:, f 10;
#X text 203 620 使用[trigger]和[float]对象实现 的[swap]对象, f 25;
#X text 402 484 用逗号分隔的消息会按照从左到右的顺 序发送，这正如常识所预料的那样//。, f 32;
#X text 32 20 Pd的“热/冷（Hot/Cold）结构”实际上揭示了Pd中对象接收与输出信息的执 行顺序：大多数情况下，对象必定先接收其最右侧的入口的数据（即冷入口） ，层层递进，最后才到最左侧的入口（即热入口），在输出数据时也是这样// 而当多条连接线接入同一个对象的入口，或者同一个对象的出口输出多条连 接线时，则按照接线的顺序执行，然而这样连接的程序将非常不利于理解， 在排查bug时也会带来不利，因此极不推荐// [trigger]对象在Pd中对于控制消息的执行顺序至关重要，也是理解这一机制 的最佳示例// 在下方的演示中，左侧的一个触发器消息同时激活了三个消息，但由于没有 明确约束，它们的执行顺序是不确定的//而在右侧，我们使用了[trigger]来 明确定义从右到左的执行顺序，因为它的出口是按照从右到左的顺序来输出 数据的//此外，[trigger]对象的参数不仅决定了它拥有多少个出口，还规定 了每个出口输出的数据类型//, f 61;
#X text 512 53 Pd中的数据流是以“深度优先（depth first）”的方式执行的//这意味着，每当出现 一个新的数据分支时，Pd都会先一路执行到该分支的尽头，然后才会去处理下一个分支// 请看下方的示例：[trigger]对象会让输入数据（数字1）首先从最右侧的出口发出，接 着进入下一个[trigger]对象最右侧的出口，然后再进入最后一个[trigger]对象最右侧的 出口//一旦数据到达了分支，它就必须先走到这条链路的尽头并进入[print]对象，之后 才会回过头去触发下一个[trigger]对象的输出，依此类推//, f 69;
#X text 550 186 <= 点击（深度优先）;
#X text 681 484 发送给某个对象的列表也可能会将其中的各个元素分散到不同 的入口中//当该对象的左侧入口不支持接收列表时，就会发生 这种情况//当然，元素进入不同入口的顺序依然会遵循从右到 左的规则//, f 51;
#X text 1000 566 *在左两例中，[+]对象将输入列表的“1 3”中的 1和3 ，以及和“10 20”中的10和20分别拆 到了左右两个入口。，而在右例中，可以看出 [pack]对象依然优先识别冷入口的“0”信息//, f 37;
#X obj 152 735 note 412 15 微软雅黑 empty 4 55 55 55 0 228 228 228 1 0 需要注意的是，“深度优先”规则在遇到像[delay]这样的时间对象时会有例外。[delay]对象在接收到一个触发器信号后，会将其延迟指定的毫秒数。因此，[delay]的输出会被延迟5毫秒，你可以在控制台窗口中观察到它确实是在稍后才输出的。请注意，即使 [delay] 的延迟时间被设置为0，这条规则依然适用！;
#X connect 0 0 4 0;
#X connect 1 0 3 0;
#X connect 1 1 2 0;
#X connect 1 2 0 0;
#X connect 2 0 4 0;
#X connect 3 0 4 0;
#X connect 5 0 8 0;
#X connect 6 0 8 0;
#X connect 7 0 8 0;
#X connect 9 0 6 0;
#X connect 9 0 5 0;
#X connect 9 0 7 0;
#X connect 10 0 1 0;
#X connect 11 0 16 0;
#X connect 11 1 15 0;
#X connect 12 0 11 1;
#X connect 13 0 11 0;
#X connect 14 0 23 0;
#X connect 15 0 14 1;
#X connect 16 0 14 0;
#X connect 17 0 21 1;
#X connect 18 0 22 0;
#X connect 21 0 20 0;
#X connect 22 0 21 0;
#X connect 22 1 19 0;
#X connect 24 0 25 0;
#X connect 25 0 37 0;
#X connect 25 1 26 0;
#X connect 26 0 27 0;
#X connect 26 1 38 0;
#X connect 27 0 37 0;
#X connect 28 0 29 0;
#X connect 29 0 30 0;
#X connect 30 0 31 0;
#X connect 31 0 37 0;
#X connect 32 0 33 0;
#X connect 33 0 34 0;
#X connect 34 0 37 0;
#X connect 35 0 36 0;
#X connect 36 0 37 0;
#X connect 38 0 35 0;
#X connect 38 1 32 0;
#X connect 38 2 28 0;
#X connect 39 0 40 0;
#X connect 41 0 43 0;
#X connect 42 0 41 0;
#X connect 44 0 41 0;
#X connect 45 0 47 0;
#X connect 46 0 45 0;
#X connect 48 0 45 3;
#X connect 49 0 53 0;
#X connect 50 0 54 0;
#X connect 50 1 49 0;
#X connect 50 2 52 0;
#X connect 51 0 50 0;
